<svg xmlns="http://www.w3.org/2000/svg" width="923" height="1024"><path d="M907.558 436.019c-10.554-14.239-26.047-23.403-43.634-25.872-17.665-2.506-35.096 2.134-49.197 12.926l-45.988 35.252-69.684 52.038-49.864-19.861c88.915-39.894 151.06-128.829 151.06-232.082 0-140.385-114.671-254.604-255.624-254.604S289.006 118.035 289.006 258.42c0 50.883 15.216 98.198 41.128 138.015l-101.49-.881h-.176c-.314 0-.567.156-.861.176-1.939.079-3.839.47-5.699 1.136-.47.176-.959.275-1.408.488-.235.099-.47.118-.705.235l-118.724 58.616c-.021 0-.039 0-.039.018l-69.528 33.436c-.764.332-1.547.782-2.311 1.291C1.48 509.399-7.96 545.632 7.22 575.244c8.088 15.746 21.856 27.341 38.778 32.647a66.362 66.362 0 0 0 19.8 3.037c10.635 0 21.172-2.605 30.826-7.756l50.961-27.104 83.138-42.931 49.825-.294L80.722 731.711c-.018.02-.039.02-.06.039l-49.159 48.962c-11.613 11.556-17.998 26.889-17.998 43.245 0 16.334 6.385 31.707 17.998 43.283 11.928 11.868 27.615 17.821 43.302 17.821 15.708 0 31.374-5.953 43.341-17.821l48.257-48.063 63.925-47.728 33.08 32.941-64.69 64.415c-.018.022-.04.022-.06.04l-49.159 48.961c-11.613 11.556-17.998 26.889-17.998 43.245 0 16.335 6.385 31.707 17.998 43.283 11.928 11.868 27.635 17.823 43.322 17.823s31.395-5.954 43.342-17.823l127.849-127.3c.02-.022.02-.04.039-.06l37.076-36.721-.138-.138c.235-.235.567-.316.804-.567l189.7-207.776 127.459 18.135c.92.138 1.84.196 2.761.196 2.37 0 4.662-.567 6.874-1.41.646-.233 1.214-.549 1.821-.861.705-.353 1.449-.547 2.117-.997l117.998-78.339c.431-.294.666-.765 1.076-1.078.47-.371 1.059-.527 1.487-.94l46.689-43.733c24.294-22.763 27.643-60.052 7.782-86.726zM78.231 568.609c-6.364 3.408-13.592 4.091-20.505 1.9-6.856-2.135-12.417-6.817-15.669-13.142-5.915-11.517-2.488-25.54 7.872-33.119l48.239-23.208 16.49 48.197-36.428 19.372zm128.419-67.118-56.854 29.379-16.116-47.124 74.424-36.741-1.454 54.487zm554.471-243.109c0 33.725-8.049 65.533-21.994 93.986l-153.546-69.741c-1.607-21.052-12.533-39.483-28.946-50.96l53.762-178.478c87.31 27.773 150.724 109.227 150.724 205.193zm-432.905 0c0-118.784 97.102-215.436 216.453-215.436 9.283 0 18.37.783 27.359 1.919l-52.585 174.562c-.705-.02-1.371-.215-2.097-.215-37.917 0-68.764 30.747-68.764 68.548 0 37.799 30.848 68.549 68.764 68.549 25.499 0 47.532-14.081 59.421-34.687l141.834 64.435c-39.464 53.114-102.627 87.762-173.936 87.762-119.348 0-216.45-96.652-216.45-215.436zm218.724 29.377c0 16.198-13.28 29.377-29.594 29.377s-29.592-13.179-29.592-29.377c0-16.196 13.278-29.377 29.592-29.377s29.594 13.181 29.594 29.377zM90.513 839.468c-8.675 8.598-22.719 8.58-31.374.022-4.173-4.173-6.463-9.674-6.463-15.531 0-5.837 2.291-11.341 6.463-15.472l35.329-35.195 31.257 31.121-35.212 35.056zM208.53 976.565c-8.675 8.598-22.738 8.618-31.395.02-4.173-4.172-6.463-9.673-6.463-15.531 0-5.835 2.29-11.34 6.463-15.471l35.352-35.214 31.277 31.121-35.234 35.075zm127.852-127.38c-.022.018-.04.018-.06.039l-64.807 64.63-31.277-31.121 64.747-64.453v-.018c.022-.02.039-.02.06-.039 1.469-1.469 2.389-3.231 3.29-4.974.255-.51.744-.942.96-1.469.608-1.507.705-3.132.94-4.72.118-.903.51-1.742.51-2.666 0-1.313-.47-2.584-.744-3.878-.235-1.175-.235-2.372-.687-3.505-.744-1.842-2.018-3.466-3.349-5.055-.371-.431-.509-.98-.92-1.39h-.02c-.02-.018-.02-.06-.039-.079l-59.011-58.754c-.626-.628-1.429-.881-2.134-1.41-1.037-.802-2.036-1.546-3.193-2.115-1.115-.549-2.251-.881-3.426-1.197-1.254-.353-2.468-.626-3.78-.725-1.195-.077-2.312.04-3.505.178-1.313.156-2.545.332-3.819.744-1.234.391-2.33.997-3.465 1.645-.725.411-1.548.549-2.234 1.058L155.3 778.522l-33.08-32.943 88.094-87.623L370.441 815.44l-34.061 33.745zm250.395-257.662c-.567-.079-1.098.138-1.664.099-1.43-.079-2.8.02-4.23.253-1.116.196-2.174.411-3.231.784-1.254.431-2.389 1.019-3.547 1.722-1.096.666-2.095 1.371-3.054 2.253-.472.41-1.037.608-1.469 1.076L397.055 786.667 238.123 630.358l104.035-103.486c7.658-7.638 7.698-20.037.059-27.713-3.858-3.858-8.929-5.758-14.002-5.738v-.018l-81.473.488 1.019-59.028 113.985.98c46.454 47.514 111.242 77.146 182.923 77.146 16.058 0 31.727-1.664 46.983-4.506 1.469 1.175 2.916 2.37 4.759 3.114l88.487 35.254 12.14 60.359-110.261-15.687zm148.395 6.542-11.496-57.21 53.114-39.659 34.764 46.14-76.382 50.728zM873.01 494.107l-30.769 28.828-34.195-45.397 30.532-23.404c5.699-4.385 12.887-6.169 19.938-5.248 7.089.997 13.357 4.7 17.626 10.438 7.954 10.713 6.601 25.657-3.132 34.782z"/></svg>