<svg xmlns="http://www.w3.org/2000/svg" width="1327" height="1024"><path d="M66.336 1021.848h1061.371c36.633 0 66.334-29.702 66.334-66.336v-88.447c0-36.633-29.702-66.336-66.334-66.336h-22.113V249.305l125.599-118.982c29.152 14.371 64.436 5.647 83.513-20.687 19.09-26.323 16.412-62.568-6.326-85.802s-58.908-26.701-85.652-8.206c-26.732 18.506-36.234 53.585-22.5 83.049l-94.635 89.711v-51.015c0-36.634-29.702-66.336-66.336-66.336H154.782c-36.634 0-66.336 29.702-66.336 66.336v663.356H66.334c-36.634 0-66.336 29.704-66.336 66.336v88.447c0 36.635 29.702 66.336 66.336 66.336zM1260.377 48.925c12.21 0 22.111 9.901 22.111 22.112s-9.901 22.112-22.111 22.112c-12.212 0-22.113-9.901-22.113-22.112s9.901-22.112 22.113-22.112zM132.671 137.373c0-12.211 9.901-22.112 22.112-22.112h884.475c12.212 0 22.113 9.901 22.113 22.112v92.864l-44.224 42.02v-90.661c0-12.211-9.901-22.112-22.113-22.112H199.007c-12.211 0-22.112 9.901-22.112 22.112v552.797c0 12.21 9.901 22.111 22.112 22.111h796.027c12.212 0 22.113-9.901 22.113-22.111V333.086l44.224-41.902v509.544H132.672V137.372zm199.006 287.454c-29.918-.087-56.185 19.845-64.142 48.684-7.959 28.837 4.361 59.424 30.09 74.691 25.718 15.267 58.486 11.435 79.982-9.371l76.863 38.567c8.93 4.47 19.758 2.374 26.398-5.086l163.389-183.816L804.87 508.848c8.617 6.457 20.643 5.765 28.462-1.631l139.592-132.229V712.28H221.12V203.707h751.804v110.355L816.478 462.216 654.515 340.794c-9.199-6.887-22.145-5.592-29.789 2.992L459.092 530.148l-61.92-30.965c.453-2.657.734-5.334.842-8.021 0-36.635-29.702-66.336-66.336-66.336zm22.113 66.336c0 12.21-9.901 22.111-22.113 22.111-12.21 0-22.111-9.901-22.111-22.111 0-12.212 9.901-22.113 22.111-22.113 12.212 0 22.113 9.901 22.113 22.113zm132.671 353.791h221.12v22.111c0 12.212-9.901 22.113-22.113 22.113H508.574c-12.212 0-22.113-9.901-22.113-22.113v-22.111zm-442.237 22.11c0-12.21 9.901-22.111 22.112-22.111h375.901v22.111c0 36.635 29.702 66.336 66.336 66.336h176.894c36.635 0 66.336-29.702 66.336-66.336v-22.111h375.903c12.21 0 22.111 9.901 22.111 22.111v88.447c0 12.212-9.901 22.113-22.111 22.113H66.335c-12.211 0-22.112-9.901-22.112-22.113v-88.447z"/></svg>