<svg xmlns="http://www.w3.org/2000/svg" width="965" height="1024"><symbol d="M955.54 707.131 685.35 434.966l29.989-147.705c7.193 2.894 15.53 4.601 24.257 4.666h.232c.243.003.531.005.818.005 38.158 0 69.091-30.933 69.091-69.091s-30.933-69.091-69.091-69.091c-38.158 0-69.091 30.933-69.091 69.091 0 8.301 1.464 16.26 4.147 23.633l-.153-.48-158.72 19.383L257.933 5.12A17.006 17.006 0 0 0 245.886 0h-.007a17.112 17.112 0 0 0-11.952 4.974L185.55 53.102c-3.088 3.089-4.997 7.356-4.997 12.069s1.91 8.98 4.997 12.069l26.039 26.405c-36.576 65.993-58.103 144.706-58.103 228.447 0 131.377 52.985 250.379 138.751 336.802l-.03-.03a16.158 16.158 0 0 0 4.681 3.116c-1.024 5.245-1.629 11.295-1.667 17.478v198.015h-204.8c-47.115.042-85.299 38.216-85.358 85.323v34.134c0 9.435 7.651 17.072 17.086 17.072h785.072c9.421 0 17.057-7.636 17.057-17.072v-34.128c-.058-47.102-38.226-85.27-85.323-85.328H534.149v-87.742a481.55 481.55 0 0 0 97.558 10.24c82.553-.09 160.151-21.217 227.748-58.307l-2.468 1.241 26.185 26.331a17.08 17.08 0 0 0 12.039 5.12 17.112 17.112 0 0 0 11.952-4.974l48.391-48.128c3.088-3.089 4.997-7.356 4.997-12.069s-1.91-8.98-4.997-12.069zm-239.777-507.67c6.17-6.138 14.676-9.933 24.069-9.933 18.849 0 34.128 15.28 34.128 34.128s-15.28 34.128-34.128 34.128H739.71c-18.771-.102-33.948-15.343-33.948-34.128 0-9.456 3.846-18.014 10.058-24.195l.001-.001h-.059zm-40.184 112.128-19.149 94.267-37.61-37.844 56.759-56.422zm-19.383-28.863-61.44 61.089-47.543-47.792 108.983-13.297zM738.935 921.6c28.277 0 51.2 22.923 51.2 51.2v17.072H39.207V972.8c0-28.277 22.923-51.2 51.2-51.2h648.528zm-238.929-68.272v34.143H329.334v-34.143h170.672zM329.335 819.2V689.488c0-41.399 38.283-75.088 85.328-75.088 47.06 0 85.343 33.69 85.343 75.088V819.2H329.334zm204.8-54.272v-75.44c0-60.226-53.584-109.217-119.472-109.217a118.8 118.8 0 0 0-1.867-.014c-43.281 0-81.28 22.613-102.828 56.669l-.295.499c-75.515-79.415-121.968-187.081-121.968-305.598 0-74.053 18.136-143.87 50.209-205.252l-1.165 2.448 595.266 598.674c-58.323 30.297-127.343 48.066-200.514 48.066-34.517 0-68.11-3.954-100.351-11.434l2.983.583zm361.253-21.884L221.567 65.258l24.137-24.064L499.627 296.55c.117 0 .19.219.307.307l419.664 422.122-24.21 24.064z"/></svg>