<svg xmlns="http://www.w3.org/2000/svg" width="995" height="1024"><path d="M986.864 489.64C986.808 219.164 767.497-.055 497.012 0 226.536.055 7.317 219.374 7.372 489.851c.047 213.055 137.82 401.633 340.781 466.438 1.937.61 3.953.922 5.977.914a21.611 21.611 0 0 0 10.96-3 20.392 20.392 0 0 0 9.062-11.406l123.68-392c33.812-.171 61.079-27.726 60.899-61.531-.173-33.812-27.718-61.079-61.531-60.906a60.372 60.372 0 0 0-26.242 6.125L307.567 271.071c-8.11-7.828-21.024-7.601-28.852.5-7.641 7.914-7.641 20.445 0 28.359L442.02 463.422c-12.531 25.578-5.367 56.453 17.164 73.89L341.341 910.844C108.45 825.055-10.8 566.719 74.99 333.829 160.78 100.938 419.114-18.312 652.006 67.477s352.14 344.133 266.351 577.016a449.406 449.406 0 0 1-238.788 255.149l-12.736-59.977c-2.327-11.023-13.163-18.071-24.187-15.734a20.507 20.507 0 0 0-9.359 4.743L510.506 938.292c-8.423 7.491-9.172 20.389-1.672 28.812a20.468 20.468 0 0 0 9.062 5.882l156.757 50.031c10.727 3.445 22.219-2.453 25.664-13.188 1.094-3.391 1.274-7 .54-10.484l-12.516-58.851c181.258-76.415 298.945-254.149 298.524-450.853zm-489.743-20.405c11.265 0 20.407 9.14 20.407 20.405 0 11.274-9.141 20.407-20.407 20.407-11.273 0-20.405-9.133-20.405-20.407 0-11.265 9.133-20.405 20.405-20.405zm67.211 475.648 69.891-62.344 19.289 90.89-89.18-28.546z"/></svg>